<svg width="185" height="185" viewBox="0 0 185 185" fill="none" xmlns="http://www.w3.org/2000/svg">
<g id="cookies-svgrepo-com 1" clip-path="url(#clip0_4_67)">
<g id="Cookie">
<g id="Group 1">
<path id="Vector" d="M173.305 89.7395L164.509 91.4984C161.583 92.0838 158.641 90.5615 157.429 87.8338L148.008 66.6361C147.211 64.8414 145.631 63.5146 143.726 63.038L138.818 61.8113C135.978 61.1013 133.986 58.55 133.986 55.6225V21.6085C133.986 20.019 133.392 18.4866 132.322 17.3116L120.472 4.30884C109.789 0.92573 98.2726 -0.583538 86.2996 0.20488C40.2827 3.23642 3.0048 40.67 0.196924 86.7007C-3.07924 140.415 39.5134 185 92.5199 185C143.078 185 184.136 144.432 184.98 94.075L177.409 90.2894C176.14 89.6545 174.696 89.4612 173.305 89.7395Z" fill="#FFE6A1"/>
<g id="Group">
<path id="Vector_2" d="M121.227 156.293C120.665 156.293 120.112 156.261 119.553 156.251C116.048 160.182 110.96 162.672 105.278 162.672C96.91 162.672 89.815 157.292 87.2145 149.81C75.768 145.28 65.4434 138.54 56.7665 130.104C55.4538 130.499 54.0905 130.775 52.6488 130.775C44.7216 130.775 38.2954 124.349 38.2954 116.422C38.2954 113.654 39.1163 111.091 40.4742 108.899C40.377 108.725 40.2733 108.556 40.1768 108.382C30.2204 107.707 22.3474 99.4379 22.3474 89.3102C22.3474 83.3414 25.0813 78.0136 29.3634 74.5037C28.9576 70.9876 28.7267 67.4184 28.7267 63.7928C28.7267 45.6003 33.9999 28.6493 43.0703 14.3436C17.2043 30.7436 0.0198975 59.6061 0.0198975 92.5C0.0198975 143.586 41.4335 185 92.5199 185C125.414 185 154.276 167.816 170.676 141.95C156.371 151.02 139.42 156.293 121.227 156.293Z" fill="#FFD796"/>
<path id="Vector_3" d="M71.7873 76.5517C76.1913 76.5517 79.7614 72.9816 79.7614 68.5776C79.7614 64.1736 76.1913 60.6034 71.7873 60.6034C67.3833 60.6034 63.8131 64.1736 63.8131 68.5776C63.8131 72.9816 67.3833 76.5517 71.7873 76.5517Z" fill="#FFD796"/>
<path id="Vector_4" d="M156.313 129.181C160.717 129.181 164.287 125.611 164.287 121.207C164.287 116.803 160.717 113.233 156.313 113.233C151.909 113.233 148.339 116.803 148.339 121.207C148.339 125.611 151.909 129.181 156.313 129.181Z" fill="#FFD796"/>
<path id="Vector_5" d="M83.7483 129.181C86.831 129.181 89.3301 126.682 89.3301 123.599C89.3301 120.516 86.831 118.017 83.7483 118.017C80.6656 118.017 78.1665 120.516 78.1665 123.599C78.1665 126.682 80.6656 129.181 83.7483 129.181Z" fill="#FFD796"/>
<path id="Vector_6" d="M126.809 78.1462C129.892 78.1462 132.391 75.6472 132.391 72.5644C132.391 69.4817 129.892 66.9827 126.809 66.9827C123.726 66.9827 121.227 69.4817 121.227 72.5644C121.227 75.6472 123.726 78.1462 126.809 78.1462Z" fill="#FFD796"/>
<path id="Vector_7" d="M104.481 28.7068C107.564 28.7068 110.063 26.2077 110.063 23.125C110.063 20.0423 107.564 17.5432 104.481 17.5432C101.399 17.5432 98.8995 20.0423 98.8995 23.125C98.8995 26.2077 101.399 28.7068 104.481 28.7068Z" fill="#FFD796"/>
</g>
<g id="Group_2">
<path id="Vector_8" d="M87.8782 82.161L84.1909 88.3068C81.9868 91.9801 83.9582 96.7387 88.1138 97.7776L99.0895 100.521C102.508 101.376 105.971 99.298 106.826 95.8799L108.081 90.8574C108.335 89.8413 108.335 88.779 108.081 87.763L106.754 82.4526C105.928 79.1489 102.653 77.0764 99.3139 77.7441L92.0975 79.1872C90.3349 79.5403 88.8032 80.6199 87.8782 82.161Z" fill="#B97850"/>
<path id="Vector_9" d="M106.289 121.649L102.443 128.059C100.532 131.245 101.737 135.385 105.06 137.047L117.303 143.168C120.953 144.993 125.355 142.969 126.345 139.009L127.606 133.965L129.08 128.069C129.997 124.399 127.538 120.741 123.793 120.206L112.661 118.616C110.121 118.253 107.609 119.449 106.289 121.649Z" fill="#B97850"/>
<path id="Vector_10" d="M39.1727 83.5962L34.4794 91.4185C32.9733 93.9287 33.369 97.1416 35.4387 99.2117L42.825 106.598C45.5136 109.287 49.942 109.042 52.3174 106.073L58.6497 98.1569C59.8934 96.6025 60.34 94.5563 59.8569 92.6247L58.4126 86.8477C57.8147 84.4557 55.8924 82.6231 53.4751 82.1393L45.8937 80.6231C43.2502 80.0942 40.5598 81.2844 39.1727 83.5962Z" fill="#B97850"/>
<path id="Vector_11" d="M65.1442 31.8037L61.5251 37.8358C59.4254 41.3352 61.1063 45.8793 64.978 47.1699L72.8314 49.7878C75.1237 50.5516 77.6508 49.9551 79.3596 48.2467L83.5867 44.0195C85.1712 42.4351 85.8082 40.1352 85.2647 37.9615L84.1591 33.5392C83.4491 30.6988 80.8974 28.7064 77.9699 28.7064H70.614C68.3737 28.7068 66.2972 29.8826 65.1442 31.8037Z" fill="#B97850"/>
<path id="Vector_12" d="M142.188 81.1073L138.496 84.7997C136.005 87.2907 136.005 91.33 138.496 93.8214L140.303 95.6284C142.245 97.5701 145.211 98.0514 147.667 96.8233L158.115 91.5992C160.79 90.2619 162.177 87.247 161.452 84.3463L160.978 82.4533C160.153 79.1497 156.877 77.0771 153.538 77.7448L145.449 79.3628C144.213 79.6093 143.079 80.2167 142.188 81.1073Z" fill="#B97850"/>
<path id="Vector_13" d="M118.468 35.5749L114.232 41.2239C112.675 43.2987 112.531 46.1098 113.865 48.3338L117.785 54.867C119.659 57.9903 123.763 58.9131 126.794 56.8929L134.754 51.5861C137.801 49.5547 138.516 45.3803 136.319 42.4506L131.991 36.6809C131.213 35.6429 130.136 34.8667 128.905 34.4566L125.589 33.351C122.984 32.482 120.116 33.3781 118.468 35.5749Z" fill="#B97850"/>
<path id="Vector_14" d="M63.8788 136.36L59.7134 141.567C57.0393 144.909 58.3512 149.885 62.3258 151.475L67.921 153.713C69.4422 154.321 71.1386 154.321 72.6595 153.713L78.9386 151.201C82.7008 149.696 84.1251 145.111 81.8777 141.739L80.7991 140.122C80.183 139.198 79.3372 138.451 78.3442 137.954L71.7139 134.639C69.0223 133.294 65.7577 134.011 63.8788 136.36Z" fill="#B97850"/>
</g>
<g id="Group_3">
<path id="Vector_15" d="M50.7406 105.841L43.3543 98.4543C41.2846 96.3847 40.8886 93.1714 42.395 90.6616L47.0883 82.8392C47.4886 82.1722 48.0176 81.6305 48.6026 81.1651L45.8941 80.6239C43.2506 80.0953 40.5598 81.2855 39.1727 83.5969L34.4794 91.4193C32.9733 93.9294 33.369 97.1424 35.4387 99.2124L42.825 106.599C45.317 109.091 49.2837 109.031 51.7443 106.649C51.3917 106.415 51.052 106.152 50.7406 105.841Z" fill="#A5694B"/>
<path id="Vector_16" d="M79.2205 47.5168L71.367 44.8994C67.4957 43.6087 65.8141 39.0646 67.9141 35.5652L71.5332 29.5332C71.7171 29.226 71.9603 28.9735 72.1883 28.7068H70.6136C68.373 28.7068 66.2965 29.8826 65.1435 31.8041L61.5244 37.8358C59.4244 41.3352 61.1053 45.8793 64.9773 47.1699L72.8307 49.7878C75.123 50.5516 77.6501 49.9551 79.3588 48.2467L79.9532 47.6523C79.709 47.6017 79.4611 47.597 79.2205 47.5168Z" fill="#A5694B"/>
<path id="Vector_17" d="M105.142 98.6874L94.1664 95.9435C90.0104 94.9043 88.039 90.146 90.2435 86.4727L93.9308 80.3269C94.3699 79.5952 94.953 78.9777 95.6255 78.4823L92.0975 79.188C90.3353 79.5403 88.8029 80.6203 87.8782 82.1617L84.1909 88.3075C81.9868 91.9808 83.9582 96.7395 88.1138 97.7783L99.0895 100.522C101.402 101.1 103.714 100.316 105.246 98.7029C105.211 98.6943 105.177 98.6961 105.142 98.6874Z" fill="#A5694B"/>
<path id="Vector_18" d="M123.744 54.3152L119.824 47.782C118.489 45.5581 118.634 42.7477 120.19 40.6722L124.427 35.0235C124.891 34.4046 125.467 33.9197 126.091 33.5175L125.589 33.3502C122.983 32.482 120.115 33.3781 118.468 35.5746L114.231 41.2232C112.675 43.2983 112.53 46.1091 113.865 48.3331L117.785 54.8662C119.652 57.9791 123.734 58.9023 126.761 56.9088C125.549 56.404 124.475 55.5332 123.744 54.3152Z" fill="#A5694B"/>
<path id="Vector_19" d="M145.423 95.2035C142.931 92.7121 142.931 88.6732 145.423 86.1818L149.115 82.4894C150.005 81.5991 151.14 80.9917 152.375 80.7449L159.184 79.3831C157.727 77.9985 155.647 77.3224 153.538 77.7444L145.448 79.3625C144.213 79.6096 143.079 80.2167 142.188 81.107L138.496 84.7994C136.005 87.2907 136.005 91.3297 138.496 93.821L140.303 95.628C142.124 97.4495 144.834 97.9268 147.192 96.9733L145.423 95.2035Z" fill="#A5694B"/>
<path id="Vector_20" d="M112.963 136.512C109.64 134.85 108.434 130.71 110.346 127.524L114.192 121.115C114.696 120.275 115.409 119.638 116.195 119.121L112.661 118.616C110.121 118.253 107.61 119.449 106.289 121.649L102.444 128.059C100.532 131.245 101.737 135.385 105.061 137.047L117.303 143.168C119.743 144.388 122.497 143.861 124.365 142.213L112.963 136.512Z" fill="#A5694B"/>
<path id="Vector_21" d="M74.3003 152.647L68.7051 150.409C64.7308 148.819 63.4189 143.843 66.0927 140.5L70.2581 135.294C70.5226 134.963 70.8196 134.674 71.1332 134.409C68.5656 133.426 65.6259 134.176 63.8788 136.36L59.7134 141.567C57.0393 144.909 58.3512 149.885 62.3258 151.475L67.921 153.713C69.4422 154.321 71.1386 154.321 72.6595 153.713L74.8914 152.82C74.6937 152.763 74.4925 152.724 74.3003 152.647Z" fill="#A5694B"/>
</g>
<path id="Vector_22" d="M25.5332 130.773C25.0552 130.773 24.5674 130.664 24.11 130.436C22.5339 129.648 21.895 127.733 22.6835 126.157L25.8733 119.777C26.6617 118.201 28.5724 117.569 30.1528 118.351C31.7289 119.139 32.3678 121.054 31.5794 122.63L28.3895 129.01C27.8306 130.128 26.7047 130.773 25.5332 130.773Z" fill="#C98850"/>
<path id="Vector_23" d="M82.9508 172.241H79.761C77.9996 172.241 76.5712 170.815 76.5712 169.051C76.5712 167.288 77.9996 165.862 79.761 165.862H82.9508C84.7123 165.862 86.1406 167.288 86.1406 169.051C86.1406 170.815 84.7123 172.241 82.9508 172.241Z" fill="#925F4A"/>
<path id="Vector_24" d="M70.1891 111.638C69.711 111.638 69.2232 111.529 68.7658 111.301C67.1897 110.513 66.5509 108.598 67.3393 107.022L70.5291 100.643C71.3157 99.0697 73.2268 98.4341 74.8087 99.216C76.3848 100.004 77.0236 101.919 76.2352 103.496L73.0454 109.875C72.4864 110.993 71.3601 111.638 70.1891 111.638Z" fill="#C98850"/>
<g id="Group_4">
<path id="Vector_25" d="M51.0513 60.6034C50.5733 60.6034 50.0855 60.4946 49.628 60.267L43.2488 57.0772C41.6727 56.2888 41.0339 54.3737 41.8223 52.7976C42.6089 51.2248 44.5214 50.5859 46.1018 51.3711L52.4811 54.5605C54.0572 55.349 54.696 57.264 53.9076 58.8401C53.3486 59.9584 52.2224 60.6034 51.0513 60.6034Z" fill="#925F4A"/>
<path id="Vector_26" d="M89.3304 15.9479H82.9512C81.1897 15.9479 79.7614 14.5214 79.7614 12.7581C79.7614 10.9949 81.1897 9.56833 82.9512 9.56833H89.3304C91.0919 9.56833 92.5202 10.9949 92.5202 12.7581C92.5202 14.5214 91.0919 15.9479 89.3304 15.9479Z" fill="#925F4A"/>
</g>
<path id="Vector_27" d="M102.092 63.7928C100.921 63.7928 99.7948 63.1482 99.2359 62.0299L96.0461 55.6507C95.2576 54.0746 95.8965 52.1588 97.4726 51.3711C99.052 50.5859 100.966 51.2248 101.752 52.7976L104.942 59.1769C105.73 60.753 105.092 62.6687 103.515 63.4564C103.057 63.6841 102.57 63.7928 102.092 63.7928Z" fill="#C98850"/>
<g id="Group_5">
<path id="Vector_28" d="M14.5564 79.4116C14.1275 79.2002 13.7384 78.887 13.428 78.4805C12.3621 77.0771 12.6363 75.0764 14.0401 74.0108L19.7209 69.698C21.1232 68.6318 23.1225 68.9085 24.1905 70.3101C25.2565 71.7135 24.9822 73.7142 23.5784 74.7797L17.898 79.0922C16.9018 79.8481 15.6068 79.929 14.5564 79.4116Z" fill="#925F4A"/>
<path id="Vector_29" d="M133.986 114.828C133.169 114.828 132.353 114.516 131.73 113.893L125.351 107.514C124.105 106.268 124.105 104.249 125.351 103.003C126.597 101.758 128.616 101.758 129.862 103.003L136.241 109.383C137.487 110.629 137.487 112.647 136.241 113.893C135.618 114.516 134.801 114.828 133.986 114.828Z" fill="#925F4A"/>
</g>
<path id="Vector_30" d="M140.365 146.724C139.549 146.724 138.732 146.413 138.11 145.79C136.864 144.544 136.864 142.525 138.11 141.279L141.3 138.089C142.545 136.844 144.564 136.844 145.81 138.089C147.056 139.335 147.056 141.354 145.81 142.6L142.62 145.79C141.997 146.413 141.181 146.724 140.365 146.724Z" fill="#C98850"/>
</g>
</g>
<g id="Crumbs">
<g id="Group_6">
<path id="Vector_31" d="M146.744 12.7585V20.806C146.744 23.0629 149.023 24.6057 151.118 23.7674L160.687 19.9399C161.898 19.4554 162.692 18.2825 162.692 16.9785V12.7585C162.692 10.997 161.264 9.5687 159.503 9.5687H149.933C148.172 9.5687 146.744 10.997 146.744 12.7585Z" fill="#FFE6A1"/>
<path id="Vector_32" d="M153.563 37.9048L151.528 52.1534C151.049 55.5051 153.272 58.6472 156.592 59.3109L162.434 60.4791C164.969 60.9864 167.559 59.9133 168.993 57.7623L171.19 54.467C172.327 52.7597 172.575 50.6094 171.855 48.6886L165.2 30.9434C164.372 28.7364 161.541 28.1233 159.875 29.7901L155.368 34.2962C154.392 35.2721 153.759 36.5386 153.563 37.9048Z" fill="#FFE6A1"/>
</g>
<g id="Group_7">
<path id="Vector_33" d="M169.554 54.8131L163.713 53.6449C160.393 52.9808 158.17 49.8387 158.649 46.4874L160.684 32.2391C160.866 30.9683 161.458 29.8078 162.321 28.8632C161.455 28.8195 160.566 29.0981 159.875 29.789L155.368 34.2955C154.392 35.2714 153.758 36.5379 153.564 37.904L151.528 52.1523C151.05 55.5043 153.273 58.6461 156.592 59.3098L162.434 60.478C164.969 60.9846 167.559 59.9122 168.993 57.7612L170.915 54.8785C170.463 54.8876 170.01 54.9045 169.554 54.8131Z" fill="#FFD796"/>
<path id="Vector_34" d="M157.498 17.3878C155.402 18.2258 153.123 16.6829 153.123 14.4264V9.5687H149.933C148.172 9.5687 146.744 10.997 146.744 12.7585V20.806C146.744 23.0629 149.023 24.6057 151.118 23.7674L160.687 19.9399C161.898 19.4554 162.692 18.2828 162.692 16.9785V15.3102L157.498 17.3878Z" fill="#FFD796"/>
<path id="Vector_35" d="M170.662 69.564L168.776 73.3348C168.328 74.2327 168.328 75.2896 168.776 76.1875L169.637 77.9088C170.495 79.6248 172.662 80.2008 174.259 79.1366L179.401 75.7087C180.288 75.1169 180.821 74.1211 180.821 73.0548V69.6182C180.821 67.4412 178.688 65.9037 176.623 66.5924L172.506 67.9647C171.704 68.2318 171.04 68.807 170.662 69.564Z" fill="#FFD796"/>
</g>
</g>
</g>
<defs>
<clipPath id="clip0_4_67">
<rect width="185" height="185" fill="white"/>
</clipPath>
</defs>
</svg>
